<svg viewBox="0 0 20 20" xmlns="http://www.w3.org/2000/svg" xmlns:xlink="http://www.w3.org/1999/xlink" width="20.000000" height="20.000000" fill="none">
	<rect id="clarity:list-outline-badged" width="20.000000" height="20.000000" x="0.000000" y="0.000000" fill="rgb(255,255,255)" fill-opacity="0" />
	<path id="Vector" d="M8.33333 6.66667L13.3333 6.66667L13.3333 7.77778L8.33333 7.77778L8.33333 6.66667Z" fill="rgb(0,0,0)" fill-rule="nonzero" />
	<path id="Vector" d="M8.33333 8.88889L13.3333 8.88889L13.3333 10L8.33333 10L8.33333 8.88889Z" fill="rgb(0,0,0)" fill-rule="nonzero" />
	<path id="Vector" d="M8.33333 11.1111L13.3333 11.1111L13.3333 12.2222L8.33333 12.2222L8.33333 11.1111Z" fill="rgb(0,0,0)" fill-rule="nonzero" />
	<path id="Vector" d="M8.33333 13.3333L13.3333 13.3333L13.3333 14.4444L8.33333 14.4444L8.33333 13.3333Z" fill="rgb(0,0,0)" fill-rule="nonzero" />
	<path id="Vector" d="M6.11111 4.44444L7.22222 4.44444L7.22222 5.55555L6.11111 5.55555L6.11111 4.44444Z" fill="rgb(0,0,0)" fill-rule="nonzero" />
	<path id="Vector" d="M6.11111 6.66667L7.22222 6.66667L7.22222 7.77778L6.11111 7.77778L6.11111 6.66667Z" fill="rgb(0,0,0)" fill-rule="nonzero" />
	<path id="Vector" d="M6.11111 8.88889L7.22222 8.88889L7.22222 10L6.11111 10L6.11111 8.88889Z" fill="rgb(0,0,0)" fill-rule="nonzero" />
	<path id="Vector" d="M6.11111 11.1111L7.22222 11.1111L7.22222 12.2222L6.11111 12.2222L6.11111 11.1111Z" fill="rgb(0,0,0)" fill-rule="nonzero" />
	<path id="Vector" d="M6.11111 13.3333L7.22222 13.3333L7.22222 14.4444L6.11111 14.4444L6.11111 13.3333Z" fill="rgb(0,0,0)" fill-rule="nonzero" />
	<path id="Vector" d="M8.33333 4.44444L8.33333 5.55555L13.1444 5.55555C12.9258 5.21155 12.7592 4.83714 12.65 4.44444L8.33333 4.44444Z" fill="rgb(0,0,0)" fill-rule="nonzero" />
	<path id="Vector" d="M15.5555 7.34445L15.5555 17.7778L4.44444 17.7778L4.44444 2.22223L12.6556 2.22223C12.763 1.82984 12.9278 1.45544 13.1444 1.11111L4.44444 1.11111C4.14975 1.11111 3.86714 1.22818 3.65877 1.43655C3.45039 1.64493 3.33333 1.92754 3.33333 2.22223L3.33333 17.7778C3.33333 18.0725 3.45039 18.3551 3.65877 18.5635C3.86714 18.7718 4.14975 18.8889 4.44444 18.8889L15.5555 18.8889C15.8502 18.8889 16.1329 18.7718 16.3412 18.5635C16.5496 18.3551 16.6667 18.0725 16.6667 17.7778L16.6667 7.5C16.291 7.49855 15.9172 7.44622 15.5555 7.34445Z" fill="rgb(0,0,0)" fill-rule="nonzero" />
	<path id="Vector" d="M16.6667 6.11111C18.2008 6.11111 19.4444 4.86746 19.4444 3.33333C19.4444 1.79921 18.2008 0.555557 16.6667 0.555557C15.1325 0.555557 13.8889 1.79921 13.8889 3.33333C13.8889 4.86746 15.1325 6.11111 16.6667 6.11111Z" fill="rgb(0,0,0)" fill-rule="evenodd" />
	<path id="Vector" d="M0 0L20 0L20 20L0 20L0 0Z" fill-rule="nonzero" />
</svg>
