<svg viewBox="0 0 20 20" xmlns="http://www.w3.org/2000/svg" xmlns:xlink="http://www.w3.org/1999/xlink" width="20.000000" height="20.000000" customFrame="#000000">
	<path id="Vector" d="M19.5853 9.83945L11.0611 0.818743L10.4898 0.213781C10.3596 0.0768506 10.1835 3.31931e-16 10 0C9.81654 0 9.64048 0.0768506 9.5103 0.213781L0.414826 9.83945C0.281429 9.98014 0.176004 10.1477 0.104772 10.3322C0.0335409 10.5168 -0.002053 10.7146 9.14394e-05 10.9139C0.00891557 11.7361 0.655283 12.3924 1.43181 12.3924L2.36937 12.3924L2.36937 20L17.6307 20L17.6307 12.3924L18.5881 12.3924C18.9654 12.3924 19.3205 12.2359 19.5875 11.9533C19.7189 11.8146 19.823 11.6496 19.8938 11.468C19.9647 11.2864 20.0007 11.0917 20 10.8952C20 10.4981 19.8522 10.1221 19.5853 9.83945ZM11.2354 18.3183L8.76466 18.3183L8.76466 13.5533L11.2354 13.5533L11.2354 18.3183ZM16.0424 10.7107L16.0424 18.3183L12.6473 18.3183L12.6473 12.9927C12.6473 12.4765 12.2524 12.0584 11.7649 12.0584L8.23521 12.0584C7.74768 12.0584 7.3528 12.4765 7.3528 12.9927L7.3528 18.3183L3.95771 18.3183L3.95771 10.7107L1.83992 10.7107L10.0022 2.07538L10.5118 2.61494L18.1624 10.7107L16.0424 10.7107Z" fill-rule="nonzero" transform="matrix(-1,0,0,1,20,0)" />
</svg>
